<?xml version="1.0" standalone="no"?>
<!DOCTYPE svg PUBLIC "-//W3C//DTD SVG 20010904//EN"
 "http://www.w3.org/TR/2001/REC-SVG-20010904/DTD/svg10.dtd">
<svg version="1.0" xmlns="http://www.w3.org/2000/svg"
 width="1333.000000pt" height="833.000000pt" viewBox="0 0 1333.000000 833.000000"
 preserveAspectRatio="xMidYMid meet">

<g transform="translate(0.000000,833.000000) scale(0.100000,-0.100000)"
fill="#000000" stroke="none">
<path d="M12678 6353 c-1 -5 -133 -41 -293 -81 -373 -94 -454 -115 -567 -146
-51 -14 -151 -42 -223 -61 -71 -19 -146 -39 -165 -45 -19 -5 -165 -46 -325
-90 -159 -44 -306 -84 -325 -90 -19 -5 -109 -30 -200 -55 -91 -25 -181 -49
-200 -55 -19 -5 -134 -37 -255 -70 -507 -139 -596 -163 -710 -195 -66 -18
-174 -48 -240 -66 -109 -29 -326 -88 -400 -109 -44 -12 -138 -38 -240 -65 -95
-25 -546 -148 -605 -165 -19 -5 -78 -21 -130 -35 -52 -14 -111 -30 -130 -35
-49 -14 -329 -90 -495 -135 -215 -58 -457 -124 -490 -134 -16 -5 -66 -18 -110
-29 -44 -12 -138 -37 -210 -57 -71 -19 -188 -51 -260 -70 -71 -19 -146 -39
-165 -45 -34 -10 -160 -44 -276 -75 -33 -9 -111 -30 -174 -46 -63 -17 -160
-43 -215 -59 -55 -16 -154 -43 -220 -60 -66 -18 -133 -35 -150 -40 -170 -47
-708 -183 -1085 -274 -290 -70 -624 -137 -780 -157 -328 -41 -929 222 -1159
509 -107 133 -175 343 -195 602 -4 41 -9 98 -12 125 -8 68 13 308 37 429 11
55 36 146 55 202 91 274 73 323 -59 157 -159 -200 -571 -805 -716 -1052 -109
-184 -190 -339 -258 -491 -87 -195 -142 -353 -181 -525 -50 -218 -59 -309 -60
-591 -2 -423 27 -528 199 -709 158 -166 384 -318 594 -399 120 -46 378 -106
455 -106 22 0 41 -4 45 -10 7 -12 343 -12 382 0 15 5 73 14 128 21 208 24 476
94 767 198 186 67 755 295 1116 447 86 36 216 91 287 120 72 30 139 59 150 64
11 5 70 30 130 55 61 26 124 52 140 59 17 8 118 51 225 96 107 45 213 90 235
100 22 10 69 30 105 45 36 15 83 35 105 45 22 10 69 30 105 45 36 15 83 35
105 45 22 10 69 30 105 45 36 15 83 35 105 45 22 10 69 30 105 45 36 15 83 35
105 45 22 10 69 30 105 45 36 15 83 35 105 45 22 10 74 32 115 50 41 17 89 38
105 45 17 7 127 55 245 105 118 51 233 100 255 110 22 10 69 30 105 45 36 15
83 35 105 45 22 10 69 30 105 45 36 15 83 35 105 45 22 10 105 46 185 80 80
34 159 68 175 75 17 8 66 29 110 48 131 56 366 157 423 183 29 13 54 24 57 24
2 0 32 13 67 29 35 16 113 50 173 76 61 26 128 55 150 65 22 10 105 46 185 80
80 34 163 70 185 80 22 10 90 39 150 65 61 26 138 60 173 76 35 16 65 29 67
29 3 0 28 11 57 24 29 13 123 54 208 90 85 37 169 73 185 81 17 7 80 34 140
60 61 26 134 58 163 71 29 13 54 24 57 24 2 0 32 13 67 29 97 44 147 66 218
96 36 15 88 37 115 50 28 12 116 51 195 85 79 34 167 72 195 85 27 12 120 53
205 89 85 37 175 77 200 88 25 11 97 43 160 70 63 28 143 63 178 79 35 16 65
29 68 29 2 0 43 18 90 40 47 22 87 40 89 40 2 0 36 15 77 34 40 19 138 64 218
101 147 67 230 114 230 128 0 4 -15 7 -34 7 -19 0 -36 -3 -38 -7z"/>
</g>
</svg>
